<svg width="59" height="24" viewBox="0 0 59 24" fill="none" xmlns="http://www.w3.org/2000/svg">
<path d="M48.5349 23.9857C51.2292 23.9857 52.4973 22.9577 53.6049 19.8415L58.4574 6.23115H55.6479L52.3939 16.761H52.3368L49.0828 6.24541H46.1936L50.875 19.1997L50.6242 19.9877C50.4471 21.1155 49.4346 21.9201 48.2948 21.8369C48.0773 21.8369 47.6554 21.8144 47.4843 21.7918V23.931C47.8325 23.9786 48.1843 24.0011 48.5349 24V23.9857ZM39.1721 17.1698C37.6984 17.1698 36.7631 16.4567 36.7631 15.3776C36.7631 14.2593 37.6652 13.608 39.3896 13.5046L42.4606 13.3109V14.3163C42.3929 15.973 40.9941 17.2625 39.3373 17.1948C39.2815 17.1924 39.2268 17.1876 39.1721 17.1829V17.1698ZM38.4305 19.2817C40.1027 19.3269 41.6667 18.4557 42.507 17.0094H42.564V19.1486H45.1216V10.2886C45.1216 7.71911 43.0667 6.06357 39.903 6.06357C36.9687 6.06357 34.7986 7.74169 34.7189 10.0485H37.2088C37.5059 8.87549 38.6207 8.1018 39.8234 8.23253C41.5134 8.23253 42.4606 9.02048 42.4606 10.4704V11.4521L39.0141 11.6577C35.8052 11.8514 34.07 13.1647 34.07 15.4489C34.0677 17.7652 35.8599 19.2948 38.4293 19.2948L38.4305 19.2817ZM23.6091 3.67356H26.7942C29.1925 3.67356 30.5629 4.95235 30.5629 7.20213C30.5629 9.4519 29.1925 10.7414 26.7835 10.7414H23.6091V3.67356ZM20.8459 1.34416V19.1451H23.6091V13.0767H27.4348C30.551 13.2443 33.212 10.8543 33.3795 7.73813C33.389 7.56104 33.3902 7.38515 33.3831 7.20807C33.5305 4.12637 31.1523 1.50936 28.0706 1.3608C27.8888 1.35248 27.7082 1.35367 27.5263 1.36199L20.8459 1.34416ZM11.6745 4.66593C10.0867 4.57442 8.72829 5.56798 7.9748 5.56798C7.22131 5.56798 6.0566 4.71228 4.80039 4.73605C3.13653 4.77884 1.62004 5.6999 0.815449 7.15696C-0.897136 10.1032 0.369775 14.4649 2.02531 16.862C2.83585 18.0505 3.80802 19.3519 5.08562 19.3055C6.29549 19.2603 6.77563 18.5175 8.23744 18.5175C9.69926 18.5175 10.1331 19.3055 11.4118 19.2817C12.7358 19.2592 13.5701 18.0933 14.383 16.9048C14.9559 16.0634 15.4015 15.1423 15.707 14.1713C14.1465 13.4891 13.1351 11.9524 13.1268 10.2494C13.1506 8.74714 13.9373 7.36138 15.2161 6.57343C14.4009 5.41586 13.0923 4.70515 11.6769 4.65524L11.6745 4.66593ZM10.6833 3.09359C9.98806 3.96949 8.92438 4.47221 7.80603 4.45201C7.73472 3.36099 8.10553 2.2878 8.83406 1.47251C9.55903 0.631077 10.5811 0.103397 11.6864 0C11.7648 1.12192 11.4047 2.22957 10.6809 3.09002" fill="#F7F7F7"/>
</svg>
