<svg width="61" height="24" viewBox="0 0 61 24" fill="none" xmlns="http://www.w3.org/2000/svg">
<path d="M19.7008 10.2089C19.7017 9.52871 19.6438 8.84975 19.5277 8.17944H10.0498V12.0234H15.4783C15.3672 12.6373 15.1321 13.2226 14.7872 13.7438C14.4422 14.2651 13.9945 14.7116 13.4711 15.0564V17.5516H16.7109C18.6079 15.8147 19.7008 13.246 19.7008 10.2089Z" fill="#4285F4"/>
<path d="M10.0499 19.9623C12.7621 19.9623 15.0457 19.0779 16.711 17.5531L13.4712 15.0579C12.5695 15.6651 11.4081 16.0117 10.0499 16.0117C7.42849 16.0117 5.20348 14.2567 4.40783 11.8918H1.07031V14.4633C1.90681 16.1163 3.18949 17.5059 4.77514 18.4769C6.3608 19.448 8.18702 19.9623 10.0499 19.9623V19.9623Z" fill="#34A853"/>
<path d="M4.40769 11.8916C3.98706 10.6524 3.98706 9.31038 4.40769 8.07117V5.49976H1.07017C0.366482 6.89034 0 8.42507 0 9.98137C0 11.5377 0.366482 13.0724 1.07017 14.463L4.40769 11.8916Z" fill="#FBBC04"/>
<path d="M10.0499 3.95135C11.4832 3.92809 12.8681 4.46587 13.9053 5.44845L16.7738 2.59979C14.9549 0.903181 12.5452 -0.0282879 10.0499 0.000654827C8.18702 0.000739143 6.3608 0.515014 4.77514 1.48606C3.18949 2.45711 1.90681 3.84672 1.07031 5.49974L4.40783 8.07116C5.20348 5.70629 7.42849 3.95135 10.0499 3.95135Z" fill="#EA4335"/>
<path d="M28.7825 11.725V18.76H26.5352V1.38667H32.4955C33.207 1.37191 33.9143 1.49722 34.5768 1.75536C35.2392 2.0135 35.8436 2.39937 36.3551 2.8907C36.8717 3.3522 37.2829 3.91817 37.561 4.55059C37.8391 5.18301 37.9776 5.86721 37.9673 6.55722C37.9821 7.25092 37.8457 7.93959 37.5674 8.57604C37.2891 9.21248 36.8756 9.78165 36.3551 10.2445C35.3128 11.2315 34.0263 11.7245 32.4955 11.7236H28.7825V11.725ZM28.7825 3.52558V9.59024H32.5513C32.9645 9.6024 33.3757 9.52879 33.7586 9.37412C34.1415 9.21945 34.4877 8.98711 34.775 8.69198C35.0608 8.41604 35.288 8.08599 35.4431 7.72134C35.5982 7.35669 35.6781 6.96486 35.6781 6.569C35.6781 6.17315 35.5982 5.78131 35.4431 5.41667C35.288 5.05202 35.0608 4.72197 34.775 4.44603C34.4913 4.14467 34.1463 3.90665 33.7629 3.74772C33.3796 3.5888 32.9666 3.51261 32.5513 3.5242H28.7825V3.52558Z" fill="white"/>
<path d="M43.1459 6.48523C44.8069 6.48523 46.1181 6.92604 47.0794 7.80767C48.0407 8.6893 48.5209 9.89807 48.52 11.434V18.7601H46.3703V17.1105H46.2726C45.342 18.469 44.1044 19.1482 42.5596 19.1482C41.241 19.1482 40.1378 18.7601 39.25 17.9838C38.824 17.6275 38.4833 17.1813 38.253 16.6777C38.0226 16.1741 37.9083 15.6258 37.9183 15.0728C37.9183 13.8428 38.3864 12.8646 39.3226 12.1382C40.2587 11.4118 41.5085 11.0477 43.0719 11.0459C44.4063 11.0459 45.5053 11.2884 46.3689 11.7736V11.2635C46.3715 10.8865 46.2895 10.5136 46.1289 10.1719C45.9684 9.83028 45.7333 9.52838 45.4407 9.28814C44.8464 8.75567 44.0719 8.46513 43.2715 8.47444C42.0161 8.47444 41.0227 9.00027 40.2913 10.0519L38.312 8.81406C39.4007 7.26151 41.012 6.48523 43.1459 6.48523ZM40.2383 15.1213C40.2368 15.4053 40.3036 15.6856 40.4333 15.9388C40.5629 16.192 40.7516 16.4107 40.9837 16.5768C41.4807 16.9651 42.0976 17.1708 42.7299 17.159C43.6782 17.1575 44.5873 16.7826 45.2578 16.1166C46.0023 15.4207 46.3745 14.6042 46.3745 13.6672C45.6738 13.1127 44.6967 12.8354 43.4432 12.8354C42.5303 12.8354 41.7691 13.054 41.1595 13.4911C40.544 13.9347 40.2383 14.4739 40.2383 15.1213V15.1213Z" fill="white"/>
<path d="M60.8595 6.87341L53.3553 24H51.0354L53.8201 18.0074L48.8857 6.87341H51.3285L54.895 15.4124H54.9438L58.4125 6.87341H60.8595Z" fill="white"/>
</svg>
